<mxfile host="app.diagrams.net" agent="Mozilla/5.0 (Windows NT 10.0; Win64; x64) AppleWebKit/537.36 (KHTML, like Gecko) Chrome/135.0.0.0 Safari/537.36" version="26.2.13">
  <diagram name="第 1 页" id="dENcMOLnsWLKvwAun_4H">
    <mxGraphModel dx="1044" dy="562" grid="1" gridSize="10" guides="1" tooltips="1" connect="1" arrows="1" fold="1" page="1" pageScale="1" pageWidth="827" pageHeight="1169" math="0" shadow="0">
      <root>
        <mxCell id="0" />
        <mxCell id="1" parent="0" />
        <mxCell id="if9WQ2vkxuoHX71uvRmO-1" value="&lt;span style=&quot;font-size: 18px;&quot;&gt;变更工作班成员&lt;/span&gt;" style="swimlane;html=1;childLayout=stackLayout;startSize=20;rounded=0;shadow=0;labelBackgroundColor=none;strokeWidth=1;fontFamily=Verdana;fontSize=8;align=center;" vertex="1" parent="1">
          <mxGeometry x="70" y="40" width="800" height="920" as="geometry" />
        </mxCell>
        <mxCell id="if9WQ2vkxuoHX71uvRmO-2" value="接收请求" style="swimlane;html=1;startSize=20;" vertex="1" parent="if9WQ2vkxuoHX71uvRmO-1">
          <mxGeometry y="20" width="160" height="900" as="geometry">
            <mxRectangle y="20" width="40" height="730" as="alternateBounds" />
          </mxGeometry>
        </mxCell>
        <mxCell id="if9WQ2vkxuoHX71uvRmO-4" value="&lt;font style=&quot;font-size: 12px;&quot;&gt;开始&lt;/font&gt;" style="rounded=1;whiteSpace=wrap;html=1;shadow=0;labelBackgroundColor=none;strokeWidth=1;fontFamily=Verdana;fontSize=8;align=center;" vertex="1" parent="if9WQ2vkxuoHX71uvRmO-2">
          <mxGeometry x="30" y="70" width="100" height="60" as="geometry" />
        </mxCell>
        <mxCell id="if9WQ2vkxuoHX71uvRmO-8" value="删除工作班成员" style="swimlane;html=1;startSize=20;" vertex="1" parent="if9WQ2vkxuoHX71uvRmO-1">
          <mxGeometry x="160" y="20" width="160" height="900" as="geometry" />
        </mxCell>
        <mxCell id="if9WQ2vkxuoHX71uvRmO-40" style="edgeStyle=orthogonalEdgeStyle;rounded=0;orthogonalLoop=1;jettySize=auto;html=1;exitX=0.5;exitY=1;exitDx=0;exitDy=0;" edge="1" parent="if9WQ2vkxuoHX71uvRmO-8" source="if9WQ2vkxuoHX71uvRmO-10" target="if9WQ2vkxuoHX71uvRmO-38">
          <mxGeometry relative="1" as="geometry" />
        </mxCell>
        <mxCell id="if9WQ2vkxuoHX71uvRmO-10" value="&lt;span style=&quot;font-size: 12px;&quot;&gt;过滤请求参数中操作类型为delete的数据主键&lt;/span&gt;" style="whiteSpace=wrap;html=1;fontSize=8;fontFamily=Verdana;rounded=0;shadow=0;labelBackgroundColor=none;strokeWidth=1;" vertex="1" parent="if9WQ2vkxuoHX71uvRmO-8">
          <mxGeometry x="30" y="180" width="100" height="60" as="geometry" />
        </mxCell>
        <mxCell id="if9WQ2vkxuoHX71uvRmO-38" value="&lt;span style=&quot;font-size: 12px;&quot;&gt;根据主键删除工作成员数据&lt;/span&gt;" style="whiteSpace=wrap;html=1;fontSize=8;fontFamily=Verdana;rounded=0;shadow=0;labelBackgroundColor=none;strokeWidth=1;" vertex="1" parent="if9WQ2vkxuoHX71uvRmO-8">
          <mxGeometry x="30" y="280" width="100" height="60" as="geometry" />
        </mxCell>
        <mxCell id="if9WQ2vkxuoHX71uvRmO-18" value="新增工作班成员-1" style="swimlane;html=1;startSize=20;" vertex="1" parent="if9WQ2vkxuoHX71uvRmO-1">
          <mxGeometry x="320" y="20" width="160" height="900" as="geometry" />
        </mxCell>
        <mxCell id="if9WQ2vkxuoHX71uvRmO-19" style="edgeStyle=orthogonalEdgeStyle;rounded=0;orthogonalLoop=1;jettySize=auto;html=1;exitX=0.5;exitY=1;exitDx=0;exitDy=0;entryX=0.5;entryY=0;entryDx=0;entryDy=0;" edge="1" parent="if9WQ2vkxuoHX71uvRmO-18" source="if9WQ2vkxuoHX71uvRmO-20" target="if9WQ2vkxuoHX71uvRmO-22">
          <mxGeometry relative="1" as="geometry" />
        </mxCell>
        <mxCell id="if9WQ2vkxuoHX71uvRmO-20" value="&lt;span style=&quot;font-size: 12px;&quot;&gt;过来请求参数中操作类型不为delete且主键为空的数据&lt;/span&gt;" style="whiteSpace=wrap;html=1;fontSize=8;fontFamily=Verdana;rounded=0;shadow=0;labelBackgroundColor=none;strokeWidth=1;" vertex="1" parent="if9WQ2vkxuoHX71uvRmO-18">
          <mxGeometry x="30" y="180" width="100" height="60" as="geometry" />
        </mxCell>
        <mxCell id="if9WQ2vkxuoHX71uvRmO-21" style="edgeStyle=orthogonalEdgeStyle;rounded=0;orthogonalLoop=1;jettySize=auto;html=1;exitX=0.5;exitY=1;exitDx=0;exitDy=0;entryX=0.5;entryY=0;entryDx=0;entryDy=0;" edge="1" parent="if9WQ2vkxuoHX71uvRmO-18" source="if9WQ2vkxuoHX71uvRmO-22" target="if9WQ2vkxuoHX71uvRmO-24">
          <mxGeometry relative="1" as="geometry" />
        </mxCell>
        <mxCell id="if9WQ2vkxuoHX71uvRmO-22" value="&lt;span style=&quot;font-size: 12px;&quot;&gt;查询并设置工作成员的单位名称&lt;/span&gt;" style="whiteSpace=wrap;html=1;fontSize=8;fontFamily=Verdana;rounded=0;shadow=0;labelBackgroundColor=none;strokeWidth=1;" vertex="1" parent="if9WQ2vkxuoHX71uvRmO-18">
          <mxGeometry x="30" y="280" width="100" height="60" as="geometry" />
        </mxCell>
        <mxCell id="if9WQ2vkxuoHX71uvRmO-43" style="edgeStyle=orthogonalEdgeStyle;rounded=0;orthogonalLoop=1;jettySize=auto;html=1;exitX=0.5;exitY=1;exitDx=0;exitDy=0;entryX=0.5;entryY=0;entryDx=0;entryDy=0;" edge="1" parent="if9WQ2vkxuoHX71uvRmO-18" source="if9WQ2vkxuoHX71uvRmO-24" target="if9WQ2vkxuoHX71uvRmO-42">
          <mxGeometry relative="1" as="geometry" />
        </mxCell>
        <mxCell id="if9WQ2vkxuoHX71uvRmO-24" value="&lt;span style=&quot;font-size: 12px;&quot;&gt;调用系统参数接口获取安全准入人员及单位查询配置&lt;/span&gt;" style="whiteSpace=wrap;html=1;fontSize=8;fontFamily=Verdana;rounded=0;shadow=0;labelBackgroundColor=none;strokeWidth=1;" vertex="1" parent="if9WQ2vkxuoHX71uvRmO-18">
          <mxGeometry x="30" y="380" width="100" height="60" as="geometry" />
        </mxCell>
        <mxCell id="if9WQ2vkxuoHX71uvRmO-45" style="edgeStyle=orthogonalEdgeStyle;rounded=0;orthogonalLoop=1;jettySize=auto;html=1;exitX=0.5;exitY=1;exitDx=0;exitDy=0;" edge="1" parent="if9WQ2vkxuoHX71uvRmO-18" source="if9WQ2vkxuoHX71uvRmO-42" target="if9WQ2vkxuoHX71uvRmO-44">
          <mxGeometry relative="1" as="geometry" />
        </mxCell>
        <mxCell id="if9WQ2vkxuoHX71uvRmO-46" value="&lt;font style=&quot;font-size: 10px;&quot;&gt;是&lt;/font&gt;" style="edgeLabel;html=1;align=center;verticalAlign=middle;resizable=0;points=[];" vertex="1" connectable="0" parent="if9WQ2vkxuoHX71uvRmO-45">
          <mxGeometry x="-0.4489" y="-1" relative="1" as="geometry">
            <mxPoint as="offset" />
          </mxGeometry>
        </mxCell>
        <mxCell id="if9WQ2vkxuoHX71uvRmO-60" style="edgeStyle=orthogonalEdgeStyle;rounded=0;orthogonalLoop=1;jettySize=auto;html=1;exitX=0;exitY=0.5;exitDx=0;exitDy=0;entryX=0.5;entryY=0;entryDx=0;entryDy=0;" edge="1" parent="if9WQ2vkxuoHX71uvRmO-18" source="if9WQ2vkxuoHX71uvRmO-42" target="if9WQ2vkxuoHX71uvRmO-58">
          <mxGeometry relative="1" as="geometry">
            <Array as="points">
              <mxPoint x="10" y="518" />
              <mxPoint x="10" y="690" />
              <mxPoint x="80" y="690" />
            </Array>
          </mxGeometry>
        </mxCell>
        <mxCell id="if9WQ2vkxuoHX71uvRmO-61" value="&lt;font style=&quot;font-size: 10px;&quot;&gt;否&lt;/font&gt;" style="edgeLabel;html=1;align=center;verticalAlign=middle;resizable=0;points=[];" vertex="1" connectable="0" parent="if9WQ2vkxuoHX71uvRmO-60">
          <mxGeometry x="-0.9094" y="-2" relative="1" as="geometry">
            <mxPoint as="offset" />
          </mxGeometry>
        </mxCell>
        <mxCell id="if9WQ2vkxuoHX71uvRmO-42" value="&lt;span style=&quot;font-size: 12px;&quot;&gt;配置项值为01&lt;/span&gt;" style="rhombus;whiteSpace=wrap;html=1;rounded=0;shadow=0;labelBackgroundColor=none;strokeWidth=1;fontFamily=Verdana;fontSize=8;align=center;" vertex="1" parent="if9WQ2vkxuoHX71uvRmO-18">
          <mxGeometry x="30" y="480" width="100" height="75" as="geometry" />
        </mxCell>
        <mxCell id="if9WQ2vkxuoHX71uvRmO-44" value="&lt;span style=&quot;font-size: 12px;&quot;&gt;查询PMS3.0缓存数据获取人员信息&lt;/span&gt;" style="whiteSpace=wrap;html=1;fontSize=8;fontFamily=Verdana;rounded=0;shadow=0;labelBackgroundColor=none;strokeWidth=1;" vertex="1" parent="if9WQ2vkxuoHX71uvRmO-18">
          <mxGeometry x="30" y="600" width="100" height="60" as="geometry" />
        </mxCell>
        <mxCell id="if9WQ2vkxuoHX71uvRmO-73" style="edgeStyle=orthogonalEdgeStyle;rounded=0;orthogonalLoop=1;jettySize=auto;html=1;exitX=0.5;exitY=1;exitDx=0;exitDy=0;" edge="1" parent="if9WQ2vkxuoHX71uvRmO-18" source="if9WQ2vkxuoHX71uvRmO-58">
          <mxGeometry relative="1" as="geometry">
            <mxPoint x="150" y="630" as="targetPoint" />
            <Array as="points">
              <mxPoint x="80" y="810" />
              <mxPoint x="151" y="810" />
            </Array>
          </mxGeometry>
        </mxCell>
        <mxCell id="if9WQ2vkxuoHX71uvRmO-58" value="&lt;span style=&quot;font-size: 12px;&quot;&gt;查询安全监管中心数据获取人员信息&lt;/span&gt;" style="whiteSpace=wrap;html=1;fontSize=8;fontFamily=Verdana;rounded=0;shadow=0;labelBackgroundColor=none;strokeWidth=1;" vertex="1" parent="if9WQ2vkxuoHX71uvRmO-18">
          <mxGeometry x="30" y="710" width="100" height="60" as="geometry" />
        </mxCell>
        <mxCell id="if9WQ2vkxuoHX71uvRmO-37" style="edgeStyle=orthogonalEdgeStyle;rounded=0;orthogonalLoop=1;jettySize=auto;html=1;exitX=0.5;exitY=1;exitDx=0;exitDy=0;entryX=0.5;entryY=0;entryDx=0;entryDy=0;" edge="1" parent="if9WQ2vkxuoHX71uvRmO-1" source="if9WQ2vkxuoHX71uvRmO-4" target="if9WQ2vkxuoHX71uvRmO-10">
          <mxGeometry relative="1" as="geometry">
            <Array as="points">
              <mxPoint x="80" y="160" />
              <mxPoint x="240" y="160" />
            </Array>
          </mxGeometry>
        </mxCell>
        <mxCell id="if9WQ2vkxuoHX71uvRmO-41" style="edgeStyle=orthogonalEdgeStyle;rounded=0;orthogonalLoop=1;jettySize=auto;html=1;exitX=0.5;exitY=1;exitDx=0;exitDy=0;entryX=0.5;entryY=0;entryDx=0;entryDy=0;" edge="1" parent="if9WQ2vkxuoHX71uvRmO-1" source="if9WQ2vkxuoHX71uvRmO-38" target="if9WQ2vkxuoHX71uvRmO-20">
          <mxGeometry relative="1" as="geometry">
            <Array as="points">
              <mxPoint x="240" y="400" />
              <mxPoint x="310" y="400" />
              <mxPoint x="310" y="160" />
              <mxPoint x="400" y="160" />
            </Array>
          </mxGeometry>
        </mxCell>
        <mxCell id="if9WQ2vkxuoHX71uvRmO-29" value="新增工作班成员-2" style="swimlane;html=1;startSize=20;" vertex="1" parent="1">
          <mxGeometry x="550" y="60" width="160" height="900" as="geometry" />
        </mxCell>
        <mxCell id="if9WQ2vkxuoHX71uvRmO-76" style="edgeStyle=orthogonalEdgeStyle;rounded=0;orthogonalLoop=1;jettySize=auto;html=1;exitX=0.5;exitY=1;exitDx=0;exitDy=0;" edge="1" parent="if9WQ2vkxuoHX71uvRmO-29" source="if9WQ2vkxuoHX71uvRmO-74" target="if9WQ2vkxuoHX71uvRmO-75">
          <mxGeometry relative="1" as="geometry" />
        </mxCell>
        <mxCell id="if9WQ2vkxuoHX71uvRmO-83" value="&lt;font style=&quot;font-size: 10px;&quot;&gt;是&lt;/font&gt;" style="edgeLabel;html=1;align=center;verticalAlign=middle;resizable=0;points=[];" vertex="1" connectable="0" parent="if9WQ2vkxuoHX71uvRmO-76">
          <mxGeometry x="-0.52" relative="1" as="geometry">
            <mxPoint as="offset" />
          </mxGeometry>
        </mxCell>
        <mxCell id="if9WQ2vkxuoHX71uvRmO-81" style="edgeStyle=orthogonalEdgeStyle;rounded=0;orthogonalLoop=1;jettySize=auto;html=1;exitX=0;exitY=0.5;exitDx=0;exitDy=0;entryX=0.5;entryY=0;entryDx=0;entryDy=0;" edge="1" parent="if9WQ2vkxuoHX71uvRmO-29" source="if9WQ2vkxuoHX71uvRmO-74" target="if9WQ2vkxuoHX71uvRmO-77">
          <mxGeometry relative="1" as="geometry">
            <Array as="points">
              <mxPoint x="10" y="218" />
              <mxPoint x="10" y="370" />
              <mxPoint x="80" y="370" />
            </Array>
          </mxGeometry>
        </mxCell>
        <mxCell id="if9WQ2vkxuoHX71uvRmO-82" value="&lt;font style=&quot;font-size: 10px;&quot;&gt;否&lt;/font&gt;" style="edgeLabel;html=1;align=center;verticalAlign=middle;resizable=0;points=[];" vertex="1" connectable="0" parent="if9WQ2vkxuoHX71uvRmO-81">
          <mxGeometry x="-0.9177" y="-1" relative="1" as="geometry">
            <mxPoint as="offset" />
          </mxGeometry>
        </mxCell>
        <mxCell id="if9WQ2vkxuoHX71uvRmO-74" value="&lt;span style=&quot;font-size: 12px;&quot;&gt;人员id不为空&lt;/span&gt;" style="rhombus;whiteSpace=wrap;html=1;rounded=0;shadow=0;labelBackgroundColor=none;strokeWidth=1;fontFamily=Verdana;fontSize=8;align=center;" vertex="1" parent="if9WQ2vkxuoHX71uvRmO-29">
          <mxGeometry x="30" y="180" width="100" height="75" as="geometry" />
        </mxCell>
        <mxCell id="if9WQ2vkxuoHX71uvRmO-80" style="edgeStyle=orthogonalEdgeStyle;rounded=0;orthogonalLoop=1;jettySize=auto;html=1;exitX=0.5;exitY=1;exitDx=0;exitDy=0;" edge="1" parent="if9WQ2vkxuoHX71uvRmO-29" source="if9WQ2vkxuoHX71uvRmO-75" target="if9WQ2vkxuoHX71uvRmO-77">
          <mxGeometry relative="1" as="geometry" />
        </mxCell>
        <mxCell id="if9WQ2vkxuoHX71uvRmO-75" value="&lt;span style=&quot;font-size: 12px;&quot;&gt;查询外包人员信息并根据入职时间判断和设置是否新人字段&lt;/span&gt;" style="whiteSpace=wrap;html=1;fontSize=8;fontFamily=Verdana;rounded=0;shadow=0;labelBackgroundColor=none;strokeWidth=1;" vertex="1" parent="if9WQ2vkxuoHX71uvRmO-29">
          <mxGeometry x="30" y="290" width="100" height="60" as="geometry" />
        </mxCell>
        <mxCell id="if9WQ2vkxuoHX71uvRmO-85" style="edgeStyle=orthogonalEdgeStyle;rounded=0;orthogonalLoop=1;jettySize=auto;html=1;exitX=0.5;exitY=1;exitDx=0;exitDy=0;" edge="1" parent="if9WQ2vkxuoHX71uvRmO-29" source="if9WQ2vkxuoHX71uvRmO-77" target="if9WQ2vkxuoHX71uvRmO-84">
          <mxGeometry relative="1" as="geometry" />
        </mxCell>
        <mxCell id="if9WQ2vkxuoHX71uvRmO-77" value="&lt;span style=&quot;font-size: 12px;&quot;&gt;保存工作班成员数据&lt;/span&gt;" style="whiteSpace=wrap;html=1;fontSize=8;fontFamily=Verdana;rounded=0;shadow=0;labelBackgroundColor=none;strokeWidth=1;" vertex="1" parent="if9WQ2vkxuoHX71uvRmO-29">
          <mxGeometry x="30" y="390" width="100" height="60" as="geometry" />
        </mxCell>
        <mxCell id="if9WQ2vkxuoHX71uvRmO-89" style="edgeStyle=orthogonalEdgeStyle;rounded=0;orthogonalLoop=1;jettySize=auto;html=1;exitX=0.5;exitY=1;exitDx=0;exitDy=0;" edge="1" parent="if9WQ2vkxuoHX71uvRmO-29" source="if9WQ2vkxuoHX71uvRmO-84" target="if9WQ2vkxuoHX71uvRmO-88">
          <mxGeometry relative="1" as="geometry" />
        </mxCell>
        <mxCell id="if9WQ2vkxuoHX71uvRmO-84" value="&lt;span style=&quot;font-size: 12px;&quot;&gt;通过适配服务向安监发mq消息通知工作班成员新增&lt;/span&gt;" style="whiteSpace=wrap;html=1;fontSize=8;fontFamily=Verdana;rounded=0;shadow=0;labelBackgroundColor=none;strokeWidth=1;" vertex="1" parent="if9WQ2vkxuoHX71uvRmO-29">
          <mxGeometry x="30" y="490" width="100" height="60" as="geometry" />
        </mxCell>
        <mxCell id="if9WQ2vkxuoHX71uvRmO-88" value="&lt;span style=&quot;font-size: 12px;&quot;&gt;通过适配服务发送日计划更新消息&lt;/span&gt;" style="whiteSpace=wrap;html=1;fontSize=8;fontFamily=Verdana;rounded=0;shadow=0;labelBackgroundColor=none;strokeWidth=1;" vertex="1" parent="if9WQ2vkxuoHX71uvRmO-29">
          <mxGeometry x="30" y="590" width="100" height="60" as="geometry" />
        </mxCell>
        <mxCell id="if9WQ2vkxuoHX71uvRmO-62" value="修改工作班成员" style="swimlane;html=1;startSize=20;" vertex="1" parent="1">
          <mxGeometry x="710" y="60" width="160" height="900" as="geometry" />
        </mxCell>
        <mxCell id="if9WQ2vkxuoHX71uvRmO-69" value="&lt;span style=&quot;font-size: 12px;&quot;&gt;成功返回&lt;/span&gt;" style="whiteSpace=wrap;html=1;fontSize=8;fontFamily=Verdana;rounded=0;shadow=0;labelBackgroundColor=none;strokeWidth=1;" vertex="1" parent="if9WQ2vkxuoHX71uvRmO-62">
          <mxGeometry x="30" y="830" width="100" height="60" as="geometry" />
        </mxCell>
        <mxCell id="if9WQ2vkxuoHX71uvRmO-92" style="edgeStyle=orthogonalEdgeStyle;rounded=0;orthogonalLoop=1;jettySize=auto;html=1;exitX=0.5;exitY=1;exitDx=0;exitDy=0;entryX=0.5;entryY=0;entryDx=0;entryDy=0;" edge="1" parent="if9WQ2vkxuoHX71uvRmO-62" source="if9WQ2vkxuoHX71uvRmO-86" target="if9WQ2vkxuoHX71uvRmO-91">
          <mxGeometry relative="1" as="geometry" />
        </mxCell>
        <mxCell id="if9WQ2vkxuoHX71uvRmO-86" value="&lt;span style=&quot;font-size: 12px;&quot;&gt;过来请求参数中操作类型不为delete且主键不为空的数据&lt;/span&gt;" style="whiteSpace=wrap;html=1;fontSize=8;fontFamily=Verdana;rounded=0;shadow=0;labelBackgroundColor=none;strokeWidth=1;" vertex="1" parent="if9WQ2vkxuoHX71uvRmO-62">
          <mxGeometry x="30" y="180" width="100" height="60" as="geometry" />
        </mxCell>
        <mxCell id="if9WQ2vkxuoHX71uvRmO-95" style="edgeStyle=orthogonalEdgeStyle;rounded=0;orthogonalLoop=1;jettySize=auto;html=1;exitX=0.5;exitY=1;exitDx=0;exitDy=0;entryX=0.5;entryY=0;entryDx=0;entryDy=0;" edge="1" parent="if9WQ2vkxuoHX71uvRmO-62" source="if9WQ2vkxuoHX71uvRmO-91" target="if9WQ2vkxuoHX71uvRmO-93">
          <mxGeometry relative="1" as="geometry" />
        </mxCell>
        <mxCell id="if9WQ2vkxuoHX71uvRmO-91" value="&lt;span style=&quot;font-size: 12px;&quot;&gt;更新工作班成员数据&lt;/span&gt;" style="whiteSpace=wrap;html=1;fontSize=8;fontFamily=Verdana;rounded=0;shadow=0;labelBackgroundColor=none;strokeWidth=1;" vertex="1" parent="if9WQ2vkxuoHX71uvRmO-62">
          <mxGeometry x="30" y="280" width="100" height="60" as="geometry" />
        </mxCell>
        <mxCell id="if9WQ2vkxuoHX71uvRmO-96" style="edgeStyle=orthogonalEdgeStyle;rounded=0;orthogonalLoop=1;jettySize=auto;html=1;exitX=0.5;exitY=1;exitDx=0;exitDy=0;entryX=0.5;entryY=0;entryDx=0;entryDy=0;" edge="1" parent="if9WQ2vkxuoHX71uvRmO-62" source="if9WQ2vkxuoHX71uvRmO-93" target="if9WQ2vkxuoHX71uvRmO-94">
          <mxGeometry relative="1" as="geometry" />
        </mxCell>
        <mxCell id="if9WQ2vkxuoHX71uvRmO-93" value="&lt;span style=&quot;font-size: 12px;&quot;&gt;通过适配服务向安监发mq消息通知工作班成员更新&lt;/span&gt;" style="whiteSpace=wrap;html=1;fontSize=8;fontFamily=Verdana;rounded=0;shadow=0;labelBackgroundColor=none;strokeWidth=1;" vertex="1" parent="if9WQ2vkxuoHX71uvRmO-62">
          <mxGeometry x="30" y="380" width="100" height="60" as="geometry" />
        </mxCell>
        <mxCell id="if9WQ2vkxuoHX71uvRmO-97" style="edgeStyle=orthogonalEdgeStyle;rounded=0;orthogonalLoop=1;jettySize=auto;html=1;exitX=0.5;exitY=1;exitDx=0;exitDy=0;" edge="1" parent="if9WQ2vkxuoHX71uvRmO-62" source="if9WQ2vkxuoHX71uvRmO-94" target="if9WQ2vkxuoHX71uvRmO-69">
          <mxGeometry relative="1" as="geometry" />
        </mxCell>
        <mxCell id="if9WQ2vkxuoHX71uvRmO-94" value="&lt;span style=&quot;font-size: 12px;&quot;&gt;通过适配服务发送日计划更新消息&lt;/span&gt;" style="whiteSpace=wrap;html=1;fontSize=8;fontFamily=Verdana;rounded=0;shadow=0;labelBackgroundColor=none;strokeWidth=1;" vertex="1" parent="if9WQ2vkxuoHX71uvRmO-62">
          <mxGeometry x="30" y="480" width="100" height="60" as="geometry" />
        </mxCell>
        <mxCell id="if9WQ2vkxuoHX71uvRmO-71" style="edgeStyle=orthogonalEdgeStyle;rounded=0;orthogonalLoop=1;jettySize=auto;html=1;exitX=1;exitY=0.5;exitDx=0;exitDy=0;entryX=0.5;entryY=0;entryDx=0;entryDy=0;" edge="1" parent="1" source="if9WQ2vkxuoHX71uvRmO-44">
          <mxGeometry relative="1" as="geometry">
            <mxPoint x="630" y="240" as="targetPoint" />
            <Array as="points">
              <mxPoint x="540" y="690" />
              <mxPoint x="540" y="200" />
              <mxPoint x="630" y="200" />
            </Array>
          </mxGeometry>
        </mxCell>
        <mxCell id="if9WQ2vkxuoHX71uvRmO-90" style="edgeStyle=orthogonalEdgeStyle;rounded=0;orthogonalLoop=1;jettySize=auto;html=1;exitX=0.5;exitY=1;exitDx=0;exitDy=0;entryX=0.5;entryY=0;entryDx=0;entryDy=0;" edge="1" parent="1" source="if9WQ2vkxuoHX71uvRmO-88" target="if9WQ2vkxuoHX71uvRmO-86">
          <mxGeometry relative="1" as="geometry">
            <Array as="points">
              <mxPoint x="630" y="750" />
              <mxPoint x="700" y="750" />
              <mxPoint x="700" y="200" />
              <mxPoint x="790" y="200" />
            </Array>
          </mxGeometry>
        </mxCell>
      </root>
    </mxGraphModel>
  </diagram>
</mxfile>
